<?xml version="1.0" standalone="no"?>
<!DOCTYPE svg PUBLIC "-//W3C//DTD SVG 20010904//EN"
 "http://www.w3.org/TR/2001/REC-SVG-20010904/DTD/svg10.dtd">
<svg version="1.0" xmlns="http://www.w3.org/2000/svg"
 width="200.000000pt" height="200.000000pt" viewBox="0 0 200.000000 200.000000"
 preserveAspectRatio="xMidYMid meet">
<metadata>
Created by potrace 1.11, written by Peter Selinger 2001-2013
</metadata>
<g transform="translate(0.000000,200.000000) scale(0.100000,-0.100000)"
fill="#000000" stroke="none">
<path d="M973 1640 c-13 -5 -23 -12 -23 -15 0 -4 5 -3 12 1 6 4 8 3 5 -2 -3
-6 -43 -11 -88 -13 -102 -3 -155 -27 -223 -102 -79 -86 -110 -167 -136 -348
-13 -94 2 -130 66 -161 24 -12 46 -25 49 -30 5 -8 75 -33 128 -44 20 -5 27 -3
27 9 0 14 3 14 24 -1 16 -10 58 -18 122 -21 l96 -6 -12 22 c-11 22 -11 22 21
6 24 -13 50 -16 103 -13 39 3 79 8 89 13 13 5 16 4 11 -9 -11 -30 120 19 164
61 7 7 17 13 22 13 19 0 50 88 50 141 0 72 -32 203 -70 282 -56 120 -172 198
-321 217 -95 12 -87 11 -116 0z"/>
<path d="M1040 760 c-8 -5 -12 -12 -9 -15 4 -3 12 1 19 10 14 17 11 19 -10 5z"/>
<path d="M580 644 c-163 -29 -370 -87 -394 -109 -47 -43 -44 -161 6 -259 l20
-39 -30 -28 c-26 -25 -92 -166 -92 -199 0 -7 113 -10 341 -10 l341 0 -7 82
c-9 113 -28 176 -70 231 l-35 46 50 63 c28 34 55 78 60 98 21 83 21 85 0 113
-18 23 -29 27 -68 26 -26 -1 -81 -7 -122 -15z"/>
<path d="M1230 635 c-19 -20 -23 -35 -21 -71 3 -61 13 -84 65 -150 l45 -57
-39 -36 c-52 -48 -80 -132 -80 -241 l0 -80 375 0 375 0 0 73 c0 66 -28 199
-59 279 -11 29 -65 58 -108 58 -15 0 -22 4 -17 11 3 6 17 9 30 6 14 -2 27 -1
30 4 8 13 -17 99 -29 99 -8 0 -8 3 0 11 6 6 47 9 107 7 94 -3 96 -2 96 20 0
21 -3 22 -97 22 -54 0 -115 -5 -136 -11 -32 -8 -57 -5 -161 20 -273 68 -340
74 -376 36z m199 -232 c-53 -15 -62 -16 -54 -3 8 13 66 28 84 22 8 -3 -6 -11
-30 -19z m406 -53 c0 -22 -29 -18 -33 3 -3 14 1 18 15 15 10 -2 18 -10 18 -18z
m-387 -59 c-3 -30 -38 -41 -56 -18 -15 17 -4 55 17 60 25 5 42 -13 39 -42z
m197 9 c9 -27 -1 -40 -31 -40 -18 0 -24 5 -24 23 0 13 3 27 7 30 13 14 42 6
48 -13z m235 -7 c0 -7 -7 -13 -15 -13 -8 0 -15 6 -15 13 0 8 7 14 15 14 8 0
15 -6 15 -14z m-50 -59 c0 -8 -7 -14 -15 -14 -15 0 -21 21 -9 33 10 9 24 -2
24 -19z m-289 -14 c35 -19 15 -90 -26 -90 -39 0 -61 70 -27 89 22 13 29 13 53
1z m208 -32 c11 -30 -4 -58 -32 -58 -27 0 -47 17 -47 40 0 42 65 56 79 18z"/>
<path d="M1608 273 c7 -3 16 -2 19 1 4 3 -2 6 -13 5 -11 0 -14 -3 -6 -6z"/>
</g>
</svg>
